# xmcd CD database file
#
# Track frame offsets:
#	150
#	18455
#	31222
#	45880
#	57910
#	74712
#	86527
#	104717
#	116995
#	139890
#
# Disc length: 2209 seconds
#
# Revision: 2
# Processed by: cddbd v1.4PL0 Copyright (c) Steve Scherf et al.
# Submitted via: CDex 1.50beta9
#
DISCID=8e089f0a
DTITLE=K.T. Oslin - "My Roots Are Showing..."
DYEAR=1996
DGENRE=Country
TTITLE0=Silver Tongue and Goldplated Lies
TTITLE1=Sand Mountain Blues
TTITLE2=Hold Watcha Got
TTITLE3=Tear Time
TTITLE4=(I'll See You In) Cuba
TTITLE5=My Baby Came Back
TTITLE6=Pathway Of Teardrops
TTITLE7=Miss The Mississippi And You
TTITLE8=A Heart Needs A Home
TTITLE9=Down In The Valley
EXTD=YEAR: 1996
EXTT0=
EXTT1=
EXTT2=
EXTT3=
EXTT4=
EXTT5=
EXTT6=
EXTT7=
EXTT8=
EXTT9=
PLAYORDER=
